<svg width="25" height="24" viewBox="0 0 25 24" fill="none" xmlns="http://www.w3.org/2000/svg">
<path d="M11.9268 15.5127V13.2726" stroke="#292A2F" stroke-width="1.54454" stroke-linecap="round" stroke-linejoin="round"/>
<path d="M19.7078 11.2175L19.683 11.2354C17.6186 12.5072 14.8927 13.2751 11.923 13.2751C8.95325 13.2751 6.235 12.5072 4.17138 11.2354L4.14581 11.2175" stroke="#292A2F" stroke-width="1.54454" stroke-linecap="round" stroke-linejoin="round"/>
<path fill-rule="evenodd" clip-rule="evenodd" d="M4.07562 12.814C4.07562 7.57014 6.03866 5.8219 11.9269 5.8219C17.816 5.8219 19.7782 7.57014 19.7782 12.814C19.7782 18.0579 17.816 19.8061 11.9269 19.8061C6.03866 19.8061 4.07562 18.0579 4.07562 12.814Z" stroke="#292A2F" stroke-width="1.54454" stroke-linecap="round" stroke-linejoin="round"/>
<path d="M14.7079 6.01078V5.47378C14.7079 4.39637 13.9212 3.52267 12.952 3.52267H10.902C9.93287 3.52267 9.14612 4.39637 9.14612 5.47378V6.01078" stroke="#292A2F" stroke-width="1.54454" stroke-linecap="round" stroke-linejoin="round"/>
</svg>
